<svg xmlns="http://www.w3.org/2000/svg" viewBox="0 0 100 160">
  <path d="M20,10 C20,10 30,20 30,30 C30,40 20,40 20,50 C20,60 30,60 30,70 C30,80 20,80 20,90 C20,100 30,100 30,110 C30,120 20,120 20,130 C20,140 20,150 20,150" fill="none" stroke="#4CAF50" stroke-width="5" stroke-linecap="round" />
  <path d="M20,10 C20,10 10,20 10,30 C10,40 20,40 20,50 C20,60 10,60 10,70 C10,80 20,80 20,90 C20,100 10,100 10,110 C10,120 20,120 20,130 C20,140 20,150 20,150" fill="none" stroke="#4CAF50" stroke-width="5" stroke-linecap="round" />
  
  <ellipse cx="20" cy="30" rx="15" ry="5" fill="#C8E6C9" />
  <ellipse cx="20" cy="50" rx="15" ry="5" fill="#C8E6C9" />
  <ellipse cx="20" cy="70" rx="15" ry="5" fill="#C8E6C9" />
  <ellipse cx="20" cy="90" rx="15" ry="5" fill="#C8E6C9" />
  <ellipse cx="20" cy="110" rx="15" ry="5" fill="#C8E6C9" />
  <ellipse cx="20" cy="130" rx="15" ry="5" fill="#C8E6C9" />
  
  <path d="M50,30 C50,30 60,40 60,50 C60,60 50,60 50,70 C50,80 60,80 60,90 C60,100 50,100 50,110 C50,120 60,120 60,130 C60,140 50,140 50,150" fill="none" stroke="#4CAF50" stroke-width="5" stroke-linecap="round" />
  <path d="M50,30 C50,30 40,40 40,50 C40,60 50,60 50,70 C50,80 40,80 40,90 C40,100 50,100 50,110 C50,120 40,120 40,130 C40,140 50,140 50,150" fill="none" stroke="#4CAF50" stroke-width="5" stroke-linecap="round" />
  
  <ellipse cx="50" cy="50" rx="15" ry="5" fill="#C8E6C9" />
  <ellipse cx="50" cy="70" rx="15" ry="5" fill="#C8E6C9" />
  <ellipse cx="50" cy="90" rx="15" ry="5" fill="#C8E6C9" />
  <ellipse cx="50" cy="110" rx="15" ry="5" fill="#C8E6C9" />
  <ellipse cx="50" cy="130" rx="15" ry="5" fill="#C8E6C9" />
  
  <path d="M80,20 C80,20 90,30 90,40 C90,50 80,50 80,60 C80,70 90,70 90,80 C80,90 80,90 80,100 C80,110 90,110 90,120 C90,130 80,130 80,140" fill="none" stroke="#4CAF50" stroke-width="5" stroke-linecap="round" />
  <path d="M80,20 C80,20 70,30 70,40 C70,50 80,50 80,60 C80,70 70,70 70,80 C70,90 80,90 80,100 C80,110 70,110 70,120 C70,130 80,130 80,140" fill="none" stroke="#4CAF50" stroke-width="5" stroke-linecap="round" />
  
  <ellipse cx="80" cy="40" rx="15" ry="5" fill="#C8E6C9" />
  <ellipse cx="80" cy="60" rx="15" ry="5" fill="#C8E6C9" />
  <ellipse cx="80" cy="80" rx="15" ry="5" fill="#C8E6C9" />
  <ellipse cx="80" cy="100" rx="15" ry="5" fill="#C8E6C9" />
  <ellipse cx="80" cy="120" rx="15" ry="5" fill="#C8E6C9" />
</svg>

