<svg xmlns="http://www.w3.org/2000/svg" viewBox="0 0 80 160">
  <path d="M40,10 C40,10 50,20 50,30 C50,40 40,40 40,50 C40,60 50,60 50,70 C50,80 40,80 40,90 C40,100 50,100 50,110 C50,120 40,120 40,130 C40,140 40,150 40,150" fill="none" stroke="#4CAF50" stroke-width="5" stroke-linecap="round" />
  <path d="M40,10 C40,10 30,20 30,30 C30,40 40,40 40,50 C40,60 30,60 30,70 C30,80 40,80 40,90 C40,100 30,100 30,110 C30,120 40,120 40,130 C40,140 40,150 40,150" fill="none" stroke="#4CAF50" stroke-width="5" stroke-linecap="round" />
  
  <ellipse cx="40" cy="30" rx="15" ry="5" fill="#C8E6C9" />
  <ellipse cx="40" cy="50" rx="15" ry="5" fill="#C8E6C9" />
  <ellipse cx="40" cy="70" rx="15" ry="5" fill="#C8E6C9" />
  <ellipse cx="40" cy="90" rx="15" ry="5" fill="#C8E6C9" />
  <ellipse cx="40" cy="110" rx="15" ry="5" fill="#C8E6C9" />
  <ellipse cx="40" cy="130" rx="15" ry="5" fill="#C8E6C9" />
</svg>

