<svg xmlns="http://www.w3.org/2000/svg" viewBox="0 0 100 100">
  <circle cx="50" cy="50" r="45" fill="#C8E6C9" />
  
  <!-- Calendar -->
  <rect x="20" y="20" width="60" height="60" rx="5" fill="#FFFFFF" stroke="#212121" stroke-width="2" />
  
  <!-- Calendar header -->
  <rect x="20" y="20" width="60" height="15" rx="5" fill="#4CAF50" />
  
  <!-- Calendar grid -->
  <line x1="20" y1="45" x2="80" y2="45" stroke="#E0E0E0" stroke-width="1" />
  <line x1="20" y1="55" x2="80" y2="55" stroke="#E0E0E0" stroke-width="1" />
  <line x1="20" y1="65" x2="80" y2="65" stroke="#E0E0E0" stroke-width="1" />
  <line x1="20" y1="75" x2="80" y2="75" stroke="#E0E0E0" stroke-width="1" />
  
  <line x1="30" y1="35" x2="30" y2="80" stroke="#E0E0E0" stroke-width="1" />
  <line x1="40" y1="35" x2="40" y2="80" stroke="#E0E0E0" stroke-width="1" />
  <line x1="50" y1="35" x2="50" y2="80" stroke="#E0E0E0" stroke-width="1" />
  <line x1="60" y1="35" x2="60" y2="80" stroke="#E0E0E0" stroke-width="1" />
  <line x1="70" y1="35" x2="70" y2="80" stroke="#E0E0E0" stroke-width="1" />
  
  <!-- Marked days -->
  <circle cx="35" cy="50" r="4" fill="#4CAF50" />
  <circle cx="45" cy="50" r="4" fill="#4CAF50" />
  <circle cx="55" cy="50" r="4" fill="#4CAF50" />
  <circle cx="65" cy="50" r="4" fill="#4CAF50" />
  <circle cx="35" cy="70" r="4" fill="#4CAF50" />
  <circle cx="45" cy="70" r="4" fill="#4CAF50" />
  <circle cx="55" cy="70" r="4" fill="#4CAF50" />
  <circle cx="65" cy="70" r="4" fill="#4CAF50" />
</svg>

