<svg xmlns="http://www.w3.org/2000/svg" viewBox="0 0 120 120">
  <circle cx="60" cy="60" r="60" fill="#C8E6C9" opacity="0.5" />
  
  <path d="M30,45 C15,45 15,60 15,60 C15,60 15,75 30,75 C45,75 45,60 45,60 C45,60 45,45 30,45 Z" fill="#C8E6C9" />
  <path d="M30,45 C25,55 20,60 15,60 C20,60 25,65 30,75 C35,65 40,60 45,60 C40,60 35,55 30,45 Z" fill="#4CAF50" />
  <path d="M30,45 L30,75" fill="none" stroke="#388E3C" stroke-width="1" />
  
  <path d="M75,30 C60,30 60,45 60,45 C60,45 60,60 75,60 C90,60 90,45 90,45 C90,45 90,30 75,30 Z" fill="#C8E6C9" transform="rotate(45, 75, 45)" />
  <path d="M75,30 C70,40 65,45 60,45 C65,45 70,50 75,60 C80,50 85,45 90,45 C85,45 80,40 75,30 Z" fill="#4CAF50" transform="rotate(45, 75, 45)" />
  <path d="M75,30 L75,60" fill="none" stroke="#388E3C" stroke-width="1" transform="rotate(45, 75, 45)" />
  
  <path d="M60,75 C45,75 45,90 45,90 C45,90 45,105 60,105 C75,105 75,90 75,90 C75,90 75,75 60,75 Z" fill="#C8E6C9" transform="rotate(-45, 60, 90)" />
  <path d="M60,75 C55,85 50,90 45,90 C50,90 55,95 60,105 C65,95 70,90 75,90 C70,90 65,85 60,75 Z" fill="#4CAF50" transform="rotate(-45, 60, 90)" />
  <path d="M60,75 L60,105" fill="none" stroke="#388E3C" stroke-width="1" transform="rotate(-45, 60, 90)" />
  
  <path d="M90,60 C75,60 75,75 75,75 C75,75 75,90 90,90 C105,90 105,75 105,75 C105,75 105,60 90,60 Z" fill="#C8E6C9" />
  <path d="M90,60 C85,70 80,75 75,75 C80,75 85,80 90,90 C95,80 100,75 105,75 C100,75 95,70 90,60 Z" fill="#4CAF50" />
  <path d="M90,60 L90,90" fill="none" stroke="#388E3C" stroke-width="1" />
</svg>

