<svg xmlns="http://www.w3.org/2000/svg" viewBox="0 0 300 450">
  <rect x="25" y="25" width="250" height="400" rx="25" fill="#FFFFFF" stroke="#E0E0E0" stroke-width="2" />
  
  <!-- App header -->
  <rect x="25" y="25" width="250" height="60" rx="25" fill="#4CAF50" />
  <text x="75" y="65" font-family="Arial" font-size="20" font-weight="bold" fill="#FFFFFF">PandaFast</text>
  <circle cx="50" cy="55" r="15" fill="#FFFFFF" />
  
  <!-- Timer -->
  <circle cx="150" cy="150" r="70" fill="#F5F5F5" stroke="#4CAF50" stroke-width="4" />
  <circle cx="150" cy="150" r="60" fill="#FFFFFF" stroke="#C8E6C9" stroke-width="10" stroke-dasharray="189 377" />
  
  <text x="150" y="140" font-family="Arial" font-size="24" font-weight="bold" fill="#212121" text-anchor="middle">14:26</text>
  <text x="150" y="170" font-family="Arial" font-size="16" fill="#616161" text-anchor="middle">remaining</text>
  
  <!-- Panda character -->
  <circle cx="150" cy="280" r="50" fill="#FFFFFF" stroke="#212121" stroke-width="2" />
  <circle cx="130" cy="265" r="15" fill="#212121" />
  <circle cx="170" cy="265" r="15" fill="#212121" />
  <circle cx="133" cy="262" r="5" fill="#FFFFFF" />
  <circle cx="173" cy="262" r="5" fill="#FFFFFF" />
  <ellipse cx="150" cy="290" rx="20" ry="15" fill="#212121" />
  <ellipse cx="150" cy="285" rx="10" ry="7" fill="#FFFFFF" />
  
  <!-- Status bars -->
  <rect x="50" y="350" width="200" height="20" rx="10" fill="#F5F5F5" />
  <rect x="50" y="350" width="140" height="20" rx="10" fill="#4CAF50" />
  <text x="150" y="365" font-family="Arial" font-size="12" fill="#FFFFFF" text-anchor="middle">Fast Progress</text>
  
  <rect x="50" y="380" width="200" height="20" rx="10" fill="#F5F5F5" />
  <rect x="50" y="380" width="160" height="20" rx="10" fill="#8D6E63" />
  <text x="150" y="395" font-family="Arial" font-size="12" fill="#FFFFFF" text-anchor="middle">Panda Health</text>
</svg>

