<svg xmlns="http://www.w3.org/2000/svg" viewBox="0 0 100 100">
  <rect width="100" height="100" fill="#FFFFFF" />
  
  <!-- Simplified QR code pattern -->
  <rect x="10" y="10" width="30" height="30" fill="#000000" />
  <rect x="15" y="15" width="20" height="20" fill="#FFFFFF" />
  <rect x="20" y="20" width="10" height="10" fill="#000000" />
  
  <rect x="60" y="10" width="30" height="30" fill="#000000" />
  <rect x="65" y="15" width="20" height="20" fill="#FFFFFF" />
  <rect x="70" y="20" width="10" height="10" fill="#000000" />
  
  <rect x="10" y="60" width="30" height="30" fill="#000000" />
  <rect x="15" y="65" width="20" height="20" fill="#FFFFFF" />
  <rect x="20" y="70" width="10" height="10" fill="#000000" />
  
  <rect x="45" y="10" width="5" height="5" fill="#000000" />
  <rect x="45" y="20" width="5" height="5" fill="#000000" />
  <rect x="45" y="30" width="5" height="5" fill="#000000" />
  <rect x="45" y="40" width="5" height="5" fill="#000000" />
  
  <rect x="10" y="45" width="5" height="5" fill="#000000" />
  <rect x="20" y="45" width="5" height="5" fill="#000000" />
  <rect x="30" y="45" width="5" height="5" fill="#000000" />
  <rect x="40" y="45" width="5" height="5" fill="#000000" />
  
  <rect x="55" y="45" width="5" height="5" fill="#000000" />
  <rect x="65" y="45" width="5" height="5" fill="#000000" />
  <rect x="75" y="45" width="5" height="5" fill="#000000" />
  <rect x="85" y="45" width="5" height="5" fill="#000000" />
  
  <rect x="45" y="55" width="5" height="5" fill="#000000" />
  <rect x="45" y="65" width="5" height="5" fill="#000000" />
  <rect x="45" y="75" width="5" height="5" fill="#000000" />
  <rect x="45" y="85" width="5" height="5" fill="#000000" />
  
  <rect x="55" y="55" width="10" height="10" fill="#000000" />
  <rect x="70" y="55" width="15" height="15" fill="#000000" />
  <rect x="65" y="75" width="5" height="5" fill="#000000" />
  <rect x="75" y="75" width="15" height="15" fill="#000000" />
  <rect x="55" y="80" width="5" height="5" fill="#000000" />
</svg>

