<svg xmlns="http://www.w3.org/2000/svg" viewBox="0 0 300 200">
  <rect width="300" height="200" rx="10" fill="#F5F5F5" />
  
  <!-- Phone -->
  <rect x="30" y="25" width="100" height="150" rx="10" fill="#FFFFFF" stroke="#E0E0E0" stroke-width="2" />
  
  <!-- App header -->
  <rect x="30" y="25" width="100" height="20" rx="10" fill="#4CAF50" />
  
  <!-- Plan options -->
  <rect x="40" y="55" width="80" height="25" rx="5" fill="#FFFFFF" stroke="#4CAF50" stroke-width="2" />
  <text x="80" y="73" font-family="Arial" font-size="10" text-anchor="middle" fill="#4CAF50">16:8 Method</text>
  
  <rect x="40" y="90" width="80" height="25" rx="5" fill="#FFFFFF" stroke="#4CAF50" stroke-width="2" />
  <text x="80" y="108" font-family="Arial" font-size="10" text-anchor="middle" fill="#4CAF50">18:6 Method</text>
  
  <rect x="40" y="125" width="80" height="25" rx="5" fill="#4CAF50" stroke="#4CAF50" stroke-width="2" />
  <text x="80" y="143" font-family="Arial" font-size="10" text-anchor="middle" fill="#FFFFFF">Custom Plan</text>
  
  <!-- Arrow -->
  <path d="M140,100 L170,100 L170,90 L190,110 L170,130 L170,120 L140,120" fill="#4CAF50" />
  
  <!-- Calendar -->
  <rect x="200" y="25" width="70" height="150" rx="10" fill="#FFFFFF" stroke="#E0E0E0" stroke-width="2" />
  <rect x="210" y="45" width="50" height="15" rx="3" fill="#4CAF50" opacity="0.2" />
  <rect x="210" y="65" width="50" height="15" rx="3" fill="#4CAF50" opacity="0.9" />
  <rect x="210" y="85" width="50" height="15" rx="3" fill="#4CAF50" opacity="0.2" />
  <rect x="210" y="105" width="50" height="15" rx="3" fill="#4CAF50" opacity="0.9" />
  <rect x="210" y="125" width="50" height="15" rx="3" fill="#4CAF50" opacity="0.2" />
  <rect x="210" y="145" width="50" height="15" rx="3" fill="#4CAF50" opacity="0.9" />
</svg>

