<svg xmlns="http://www.w3.org/2000/svg" viewBox="0 0 300 200">
  <rect width="300" height="200" rx="10" fill="#F5F5F5" />
  
  <!-- Phone -->
  <rect x="100" y="25" width="100" height="150" rx="10" fill="#FFFFFF" stroke="#E0E0E0" stroke-width="2" />
  
  <!-- App header -->
  <rect x="100" y="25" width="100" height="20" rx="10" fill="#4CAF50" />
  
  <!-- Panda Customization -->
  <circle cx="150" cy="80" r="30" fill="#FFFFFF" stroke="#212121" stroke-width="2" />
  <circle cx="138" cy="72" r="8" fill="#212121" />
  <circle cx="162" cy="72" r="8" fill="#212121" />
  <circle cx="140" cy="70" r="3" fill="#FFFFFF" />
  <circle cx="164" cy="70" r="3" fill="#FFFFFF" />
  <ellipse cx="150" cy="85" rx="12" ry="8" fill="#212121" />
  <ellipse cx="150" cy="82" rx="6" ry="4" fill="#FFFFFF" />
  
  <!-- Accessories -->
  <rect x="110" y="125" width="25" height="25" rx="5" fill="#FFFFFF" stroke="#4CAF50" stroke-width="2" />
  <rect x="145" y="125" width="25" height="25" rx="5" fill="#FFFFFF" stroke="#4CAF50" stroke-width="2" />
  <circle cx="122.5" cy="137.5" r="7" fill="#FF9800" />
  <rect x="150" y="130" width="15" height="15" fill="#8D6E63" />
  
  <rect x="180" y="125" width="25" height="25" rx="5" fill="#4CAF50" stroke="#4CAF50" stroke-width="2" />
  <text x="192.5" y="140" font-family="Arial" font-size="16" text-anchor="middle" fill="#FFFFFF">+</text>

  <!-- Arrows pointing to panda -->
  <path d="M120,120 L135,95" fill="none" stroke="#4CAF50" stroke-width="2" stroke-dasharray="3 2" />
  <path d="M155,120 L150,100" fill="none" stroke="#4CAF50" stroke-width="2" stroke-dasharray="3 2" />
</svg>

